<svg class="logo" viewBox="0 0 1740 526" xmlns="http://www.w3.org/2000/svg">
    <path d="M420 135V0H0v525h420V390h-90v45H90V90h240v45h90" id="Fill-1"/>
    <path d="M240 196.85h60V120H120v172.5h120V345h-60v-14.1h-60V405h180V232.5H180V180h60v16.85" id="Fill-2"/>
    <path d="M420 300v60h-90V165h90v60h30V0h90v525h-90V300h-30" id="Fill-3"/>
    <path d="M675 15V0h-90v15h-15v105h15v15h90v-15h15V90h-30v15h-60V30h60v15h30V15h-15" id="Fill-4"/>
    <path d="M1425 210v-15h-90v15h-15v105h15v15h90v-15h15v-30h-30v15h-60v-75h60v15h30v-30h-15" id="Fill-5"/>
    <path d="M825 210v-15h-90v15h-15v105h15v15h90v-15h15v-30h-30v15h-60v-75h60v15h30v-30h-15" id="Fill-6"/>
    <path d="M825 15V0h-90v15h-15v105h15v15h90v-15h15V15h-15zm-75 15h60v75h-60V30z" id="Fill-7"/>
    <path d="M825 405v-15h-90v15h-15v105h15v15h90v-15h15V405h-15zm-75 15h60v75h-60v-75z" id="Fill-8"/>
    <path d="M960 0v15h-15v15h-30V15h-15V0h-30v135h30V45h15v15h30V45h15v90h30V0h-30" id="Fill-9"/>
    <path d="M1125 15V0h-105v135h30V90h75V75h15V15h-15zm-75 15h60v30h-60V30z" id="Fill-10"/>
    <path d="M1260 0v105h-60V0h-30v120h15v15h90v-15h15V0h-30" id="Fill-11"/>
    <path d="M960 390v105h-60V390h-30v120h15v15h90v-15h15V390h-30" id="Fill-12"/>
    <path d="M1320 0v30h45v105h30V30h45V0h-120" id="Fill-13"/>
    <path d="M870 195v30h45v75h-45v30h120v-30h-45v-75h45v-30H870" id="Fill-14"/>
    <path d="M1470 0v135h120v-30h-90V90h60V60h-60V30h90V0h-120" id="Fill-15"/>
    <path d="M1470 195v135h120v-30h-90v-15h60v-30h-60v-30h90v-30h-120" id="Fill-16"/>
    <path d="M1020 195v135h120v-30h-90v-15h60v-30h-60v-30h90v-30h-120" id="Fill-17"/>
    <path d="M1170 390v135h120v-30h-90v-15h60v-30h-60v-30h90v-30h-120" id="Fill-18"/>
    <path d="M1725 15V0h-105v135h30V90h60v45h30V90h-15V75h15V15h-15zm-75 15h60v30h-60V30z" id="Fill-19"/>
    <path d="M1260 195v75h-15v-15h-15v-15h-15v-15h-15v-30h-30v135h30v-75h15v15h15v15h15v15h15v30h30V195h-30" id="Fill-20"/>
    <path d="M690 225v-30H585v15h-15v45h15v15h45v15h30v15h-90v30h105v-15h15v-45h-15v-15h-45v-15h-30v-15h90" id="Fill-21"/>
    <path d="M1140 420v-30h-105v15h-15v45h15v15h45v15h30v15h-90v30h105v-15h15v-45h-15v-15h-45v-15h-30v-15h90" id="Fill-22"/>
    <path d="M660 390v60h-60v-60h-30v135h30v-45h60v45h30V390h-30" id="Fill-23"/>
</svg>