<svg xmlns="http://www.w3.org/2000/svg" viewBox="0 0 24 24" width="48" height="48">
    <path d="M 4 4 C 2.895 4 2 4.895 2 6 L 2 14 C 2 15.105 2.895 16 4 16 L 11.09375 16 C 11.53275 13.388 13.6585 11.3695 16.3125 11.0625 C 16.1185 10.7545 16 10.392 16 10 C 16 8.895 16.895 8 18 8 C 19.105 8 20 8.895 20 10 C 20 10.589 19.74975 11.10275 19.34375 11.46875 C 20.43275 11.93075 21.352 12.7125 22 13.6875 L 22 6 C 22 4.895 21.105 4 20 4 L 4 4 z M 6 8 C 7.105 8 8 8.895 8 10 C 8 11.105 7.105 12 6 12 C 4.895 12 4 11.105 4 10 C 4 8.895 4.895 8 6 8 z M 12 8 C 13.105 8 14 8.895 14 10 C 14 11.105 13.105 12 12 12 C 10.895 12 10 11.105 10 10 C 10 8.895 10.895 8 12 8 z M 17 12 C 14.239 12 12 14.239 12 17 C 12 19.761 14.239 22 17 22 C 19.761 22 22 19.761 22 17 C 22 14.239 19.761 12 17 12 z M 19.3125 14.71875 L 20.375 15.78125 L 16.71875 19.46875 L 14.15625 16.90625 L 15.21875 15.84375 L 16.71875 17.34375 L 19.3125 14.71875 z"/>
</svg>