<svg xmlns="http://www.w3.org/2000/svg" width="1920" height="1080"><path d="M886,1358L126,1398L1080,1369Z" fill="#49cdca" stroke="#49cdca" stroke-width="1.51"/><path d="M1080,1369L126,1398L1445,1382Z" fill="#4ad0c9" stroke="#4ad0c9" stroke-width="1.51"/><path d="M703,-231L1218,-251L1679,-309Z" fill="#38b4d2" stroke="#38b4d2" stroke-width="1.51"/><path d="M-83,-280L703,-231L1679,-309Z" fill="#32add4" stroke="#32add4" stroke-width="1.51"/><path d="M1218,-251L1359,-259L1679,-309Z" fill="#3bb6d1" stroke="#3bb6d1" stroke-width="1.51"/><path d="M1953,799L1925,1104L2010,1123Z" fill="#4dd8c6" stroke="#4dd8c6" stroke-width="1.51"/><path d="M1703,1352L1445,1382L2037,1369Z" fill="#4edbc5" stroke="#4edbc5" stroke-width="1.51"/><path d="M-83,-280L1679,-309L2045,-318Z" fill="#38b3d3" stroke="#38b3d3" stroke-width="1.51"/><path d="M2045,-318L1956,-185L2053,-43Z" fill="#42c1ce" stroke="#42c1ce" stroke-width="1.51"/><path d="M2045,-318L2053,-43L2093,330Z" fill="#45c4cc" stroke="#45c4cc" stroke-width="1.51"/><path d="M2053,-43L2045,156L2093,330Z" fill="#46c8cb" stroke="#46c8cb" stroke-width="1.51"/><path d="M2093,330L2042,426L2114,761Z" fill="#4acfc9" stroke="#4acfc9" stroke-width="1.51"/><path d="M2042,426L2010,563L2114,761Z" fill="#4ad0c9" stroke="#4ad0c9" stroke-width="1.51"/><path d="M2045,-318L2093,330L2168,1013Z" fill="#48ccca" stroke="#48ccca" stroke-width="1.51"/><path d="M2114,761L1953,799L2168,1013Z" fill="#4cd6c7" stroke="#4cd6c7" stroke-width="1.51"/><path d="M1953,799L2010,1123L2168,1013Z" fill="#4dd8c6" stroke="#4dd8c6" stroke-width="1.51"/><path d="M2010,1123L2037,1369L2168,1013Z" fill="#4edcc5" stroke="#4edcc5" stroke-width="1.51"/><path d="M2093,330L2114,761L2168,1013Z" fill="#4bd3c8" stroke="#4bd3c8" stroke-width="1.51"/><path d="M1837,973L1925,1104L1953,799Z" fill="#4cd6c7" stroke="#4cd6c7" stroke-width="1.51"/><path d="M2010,1123L1858,1267L2037,1369Z" fill="#4edcc4" stroke="#4edcc4" stroke-width="1.51"/><path d="M1971,150L2045,156L2053,-43Z" fill="#45c6cc" stroke="#45c6cc" stroke-width="1.51"/><path d="M2045,156L1971,150L2093,330Z" fill="#47c9cb" stroke="#47c9cb" stroke-width="1.51"/><path d="M2010,563L1953,799L2114,761Z" fill="#4bd2c8" stroke="#4bd2c8" stroke-width="1.51"/><path d="M1874,607L1953,799L2010,563Z" fill="#4ad0c9" stroke="#4ad0c9" stroke-width="1.51"/><path d="M1971,150L1880,363L2093,330Z" fill="#47c9cb" stroke="#47c9cb" stroke-width="1.51"/><path d="M1880,363L1951,407L2093,330Z" fill="#48cbca" stroke="#48cbca" stroke-width="1.51"/><path d="M1951,407L2042,426L2093,330Z" fill="#48ccca" stroke="#48ccca" stroke-width="1.51"/><path d="M756,1337L126,1398L886,1358Z" fill="#48cbcb" stroke="#48cbcb" stroke-width="1.51"/><path d="M1858,1267L1703,1352L2037,1369Z" fill="#4fddc4" stroke="#4fddc4" stroke-width="1.51"/><path d="M1951,407L2010,563L2042,426Z" fill="#49cdca" stroke="#49cdca" stroke-width="1.51"/><path d="M1923,-79L1971,150L2053,-43Z" fill="#44c4cd" stroke="#44c4cd" stroke-width="1.51"/><path d="M1956,-185L1923,-79L2053,-43Z" fill="#42c2cd" stroke="#42c2cd" stroke-width="1.51"/><path d="M1925,1104L1858,1267L2010,1123Z" fill="#4edac6" stroke="#4edac6" stroke-width="1.51"/><path d="M1679,-309L1956,-185L2045,-318Z" fill="#40bdcf" stroke="#40bdcf" stroke-width="1.51"/><path d="M1809,277L1880,363L1971,150Z" fill="#46c7cc" stroke="#46c7cc" stroke-width="1.51"/><path d="M1923,-79L1790,166L1971,150Z" fill="#44c4cd" stroke="#44c4cd" stroke-width="1.51"/><path d="M1951,407L1874,607L2010,563Z" fill="#49cdca" stroke="#49cdca" stroke-width="1.51"/><path d="M1804,429L1874,607L1951,407Z" fill="#48ccca" stroke="#48ccca" stroke-width="1.51"/><path d="M1874,607L1748,776L1953,799Z" fill="#4ad0c9" stroke="#4ad0c9" stroke-width="1.51"/><path d="M1790,166L1809,277L1971,150Z" fill="#45c6cc" stroke="#45c6cc" stroke-width="1.51"/><path d="M1680,-20L1790,166L1923,-79Z" fill="#43c2ce" stroke="#43c2ce" stroke-width="1.51"/><path d="M1880,363L1804,429L1951,407Z" fill="#48cacb" stroke="#48cacb" stroke-width="1.51"/><path d="M1748,776L1837,973L1953,799Z" fill="#4bd2c8" stroke="#4bd2c8" stroke-width="1.51"/><path d="M1679,-309L1923,-79L1956,-185Z" fill="#40bece" stroke="#40bece" stroke-width="1.51"/><path d="M1359,-259L1530,-259L1679,-309Z" fill="#3cb8d1" stroke="#3cb8d1" stroke-width="1.51"/><path d="M1775,1211L1858,1267L1925,1104Z" fill="#4ed9c5" stroke="#4ed9c5" stroke-width="1.51"/><path d="M1679,-309L1680,-20L1923,-79Z" fill="#41becf" stroke="#41becf" stroke-width="1.51"/><path d="M1837,973L1775,1211L1925,1104Z" fill="#4dd7c7" stroke="#4dd7c7" stroke-width="1.51"/><path d="M-83,-280L430,-201L703,-231Z" fill="#2ca8d6" stroke="#2ca8d6" stroke-width="1.51"/><path d="M1708,957L1775,1211L1837,973Z" fill="#4dd5c7" stroke="#4dd5c7" stroke-width="1.51"/><path d="M1748,776L1708,957L1837,973Z" fill="#4bd2c8" stroke="#4bd2c8" stroke-width="1.51"/><path d="M1804,429L1684,577L1874,607Z" fill="#48ccca" stroke="#48ccca" stroke-width="1.51"/><path d="M1684,577L1748,776L1874,607Z" fill="#49cdca" stroke="#49cdca" stroke-width="1.51"/><path d="M1809,277L1804,429L1880,363Z" fill="#46c9cc" stroke="#46c9cc" stroke-width="1.51"/><path d="M1775,1211L1703,1352L1858,1267Z" fill="#4edac5" stroke="#4edac5" stroke-width="1.51"/><path d="M1684,577L1633,705L1748,776Z" fill="#49cdca" stroke="#49cdca" stroke-width="1.51"/><path d="M1708,957L1597,1263L1775,1211Z" fill="#4dd6c7" stroke="#4dd6c7" stroke-width="1.51"/><path d="M1790,166L1555,202L1809,277Z" fill="#44c4cd" stroke="#44c4cd" stroke-width="1.51"/><path d="M1541,444L1804,429L1809,277Z" fill="#46c8cc" stroke="#46c8cc" stroke-width="1.51"/><path d="M1555,202L1541,444L1809,277Z" fill="#44c5cd" stroke="#44c5cd" stroke-width="1.51"/><path d="M1541,444L1684,577L1804,429Z" fill="#47c9cb" stroke="#47c9cb" stroke-width="1.51"/><path d="M446,1326L126,1398L756,1337Z" fill="#46c9cb" stroke="#46c9cb" stroke-width="1.51"/><path d="M1679,-309L1530,-259L1680,-20Z" fill="#3ebbd0" stroke="#3ebbd0" stroke-width="1.51"/><path d="M1484,1053L1597,1263L1708,957Z" fill="#4cd4c8" stroke="#4cd4c8" stroke-width="1.51"/><path d="M1680,-20L1555,202L1790,166Z" fill="#43c1ce" stroke="#43c1ce" stroke-width="1.51"/><path d="M1588,933L1708,957L1748,776Z" fill="#4bd1c9" stroke="#4bd1c9" stroke-width="1.51"/><path d="M1597,1263L1703,1352L1775,1211Z" fill="#4ed9c6" stroke="#4ed9c6" stroke-width="1.51"/><path d="M1529,170L1555,202L1680,-20Z" fill="#42c0ce" stroke="#42c0ce" stroke-width="1.51"/><path d="M1530,-259L1512,-47L1680,-20Z" fill="#3fbccf" stroke="#3fbccf" stroke-width="1.51"/><path d="M1588,933L1484,1053L1708,957Z" fill="#4bd1c8" stroke="#4bd1c8" stroke-width="1.51"/><path d="M1633,705L1588,933L1748,776Z" fill="#49cfc9" stroke="#49cfc9" stroke-width="1.51"/><path d="M1484,1053L1489,1206L1597,1263Z" fill="#4cd4c8" stroke="#4cd4c8" stroke-width="1.51"/><path d="M1541,722L1588,933L1633,705Z" fill="#49ceca" stroke="#49ceca" stroke-width="1.51"/><path d="M1597,1263L1445,1382L1703,1352Z" fill="#4dd9c6" stroke="#4dd9c6" stroke-width="1.51"/><path d="M1512,-47L1529,170L1680,-20Z" fill="#41becf" stroke="#41becf" stroke-width="1.51"/><path d="M1420,632L1541,722L1684,577Z" fill="#47cacb" stroke="#47cacb" stroke-width="1.51"/><path d="M1541,444L1420,632L1684,577Z" fill="#46c8cc" stroke="#46c8cc" stroke-width="1.51"/><path d="M1541,722L1633,705L1684,577Z" fill="#48cccb" stroke="#48cccb" stroke-width="1.51"/><path d="M703,-231L1032,-200L1218,-251Z" fill="#36b1d3" stroke="#36b1d3" stroke-width="1.51"/><path d="M1455,418L1541,444L1555,202Z" fill="#44c4cd" stroke="#44c4cd" stroke-width="1.51"/><path d="M1541,722L1398,856L1588,933Z" fill="#49ceca" stroke="#49ceca" stroke-width="1.51"/><path d="M1198,1329L1080,1369L1445,1382Z" fill="#4bd4c8" stroke="#4bd4c8" stroke-width="1.51"/><path d="M1512,-47L1435,145L1529,170Z" fill="#41becf" stroke="#41becf" stroke-width="1.51"/><path d="M1489,1206L1445,1382L1597,1263Z" fill="#4dd7c7" stroke="#4dd7c7" stroke-width="1.51"/><path d="M1398,856L1484,1053L1588,933Z" fill="#4acfc9" stroke="#4acfc9" stroke-width="1.51"/><path d="M1435,145L1310,228L1455,418Z" fill="#42c0ce" stroke="#42c0ce" stroke-width="1.51"/><path d="M1368,-57L1512,-47L1530,-259Z" fill="#3dbad0" stroke="#3dbad0" stroke-width="1.51"/><path d="M1359,-259L1368,-57L1530,-259Z" fill="#3cb8d1" stroke="#3cb8d1" stroke-width="1.51"/><path d="M1455,418L1420,632L1541,444Z" fill="#45c6cc" stroke="#45c6cc" stroke-width="1.51"/><path d="M1529,170L1435,145L1555,202Z" fill="#42c0ce" stroke="#42c0ce" stroke-width="1.51"/><path d="M1435,145L1455,418L1555,202Z" fill="#42c2ce" stroke="#42c2ce" stroke-width="1.51"/><path d="M1368,-57L1435,145L1512,-47Z" fill="#3fbcd0" stroke="#3fbcd0" stroke-width="1.51"/><path d="M1420,632L1398,856L1541,722Z" fill="#48cbcb" stroke="#48cbcb" stroke-width="1.51"/><path d="M1484,1053L1329,1187L1489,1206Z" fill="#4bd2c8" stroke="#4bd2c8" stroke-width="1.51"/><path d="M1329,1187L1445,1382L1489,1206Z" fill="#4cd5c7" stroke="#4cd5c7" stroke-width="1.51"/><path d="M1398,856L1224,959L1484,1053Z" fill="#49ceca" stroke="#49ceca" stroke-width="1.51"/><path d="M1255,699L1398,856L1420,632Z" fill="#47c9cb" stroke="#47c9cb" stroke-width="1.51"/><path d="M1231,418L1420,632L1455,418Z" fill="#44c5cd" stroke="#44c5cd" stroke-width="1.51"/><path d="M1224,959L1329,1187L1484,1053Z" fill="#4ad0c9" stroke="#4ad0c9" stroke-width="1.51"/><path d="M1368,-57L1287,-24L1435,145Z" fill="#3fbbd0" stroke="#3fbbd0" stroke-width="1.51"/><path d="M1329,1187L1198,1329L1445,1382Z" fill="#4cd4c8" stroke="#4cd4c8" stroke-width="1.51"/><path d="M1310,228L1231,418L1455,418Z" fill="#42c1ce" stroke="#42c1ce" stroke-width="1.51"/><path d="M1259,866L1224,959L1398,856Z" fill="#48cbca" stroke="#48cbca" stroke-width="1.51"/><path d="M1231,418L1255,699L1420,632Z" fill="#45c6cd" stroke="#45c6cd" stroke-width="1.51"/><path d="M1287,-24L1310,228L1435,145Z" fill="#40bdd0" stroke="#40bdd0" stroke-width="1.51"/><path d="M1255,699L1259,866L1398,856Z" fill="#47cacb" stroke="#47cacb" stroke-width="1.51"/><path d="M1287,-24L1205,197L1310,228Z" fill="#3fbccf" stroke="#3fbccf" stroke-width="1.51"/><path d="M1224,959L1226,1186L1329,1187Z" fill="#49cfc9" stroke="#49cfc9" stroke-width="1.51"/><path d="M1359,-259L1218,-251L1368,-57Z" fill="#3bb7d1" stroke="#3bb7d1" stroke-width="1.51"/><path d="M1218,-251L1287,-24L1368,-57Z" fill="#3cb8d1" stroke="#3cb8d1" stroke-width="1.51"/><path d="M1174,22L1205,197L1287,-24Z" fill="#3ebad0" stroke="#3ebad0" stroke-width="1.51"/><path d="M1226,1186L1198,1329L1329,1187Z" fill="#4bd2c8" stroke="#4bd2c8" stroke-width="1.51"/><path d="M1205,197L1231,418L1310,228Z" fill="#41bfcf" stroke="#41bfcf" stroke-width="1.51"/><path d="M1205,197L1114,249L1231,418Z" fill="#40becf" stroke="#40becf" stroke-width="1.51"/><path d="M1231,418L1008,647L1255,699Z" fill="#44c4cd" stroke="#44c4cd" stroke-width="1.51"/><path d="M1218,-251L1174,22L1287,-24Z" fill="#3bb7d1" stroke="#3bb7d1" stroke-width="1.51"/><path d="M1032,-200L1174,22L1218,-251Z" fill="#3ab5d2" stroke="#3ab5d2" stroke-width="1.51"/><path d="M1255,699L1125,835L1259,866Z" fill="#47c8cc" stroke="#47c8cc" stroke-width="1.51"/><path d="M1224,959L1008,1138L1226,1186Z" fill="#49cdca" stroke="#49cdca" stroke-width="1.51"/><path d="M969,445L1008,647L1231,418Z" fill="#42c0ce" stroke="#42c0ce" stroke-width="1.51"/><path d="M1125,835L1224,959L1259,866Z" fill="#48cacb" stroke="#48cacb" stroke-width="1.51"/><path d="M1008,647L1125,835L1255,699Z" fill="#45c6cd" stroke="#45c6cd" stroke-width="1.51"/><path d="M1008,1138L1080,1369L1198,1329Z" fill="#4ad0c9" stroke="#4ad0c9" stroke-width="1.51"/><path d="M1174,22L1031,67L1205,197Z" fill="#3dbad1" stroke="#3dbad1" stroke-width="1.51"/><path d="M1027,896L1008,1138L1224,959Z" fill="#48cbcb" stroke="#48cbcb" stroke-width="1.51"/><path d="M1008,1138L1198,1329L1226,1186Z" fill="#4ad0c9" stroke="#4ad0c9" stroke-width="1.51"/><path d="M1114,249L969,445L1231,418Z" fill="#41becf" stroke="#41becf" stroke-width="1.51"/><path d="M1032,-200L967,-116L1174,22Z" fill="#39b5d2" stroke="#39b5d2" stroke-width="1.51"/><path d="M1125,835L1027,896L1224,959Z" fill="#47c9cb" stroke="#47c9cb" stroke-width="1.51"/><path d="M1031,67L1114,249L1205,197Z" fill="#3ebad0" stroke="#3ebad0" stroke-width="1.51"/><path d="M703,-231L935,-168L1032,-200Z" fill="#35b0d3" stroke="#35b0d3" stroke-width="1.51"/><path d="M1008,1138L950,1212L1080,1369Z" fill="#4aceca" stroke="#4aceca" stroke-width="1.51"/><path d="M967,-116L1031,67L1174,22Z" fill="#3bb7d1" stroke="#3bb7d1" stroke-width="1.51"/><path d="M967,-116L931,-12L1031,67Z" fill="#3ab5d2" stroke="#3ab5d2" stroke-width="1.51"/><path d="M879,356L969,445L1114,249Z" fill="#3fbcd0" stroke="#3fbcd0" stroke-width="1.51"/><path d="M1031,67L940,133L1114,249Z" fill="#3db9d1" stroke="#3db9d1" stroke-width="1.51"/><path d="M1008,647L1027,896L1125,835Z" fill="#45c6cc" stroke="#45c6cc" stroke-width="1.51"/><path d="M940,133L879,356L1114,249Z" fill="#3ebad0" stroke="#3ebad0" stroke-width="1.51"/><path d="M1008,647L840,781L1027,896Z" fill="#45c4cd" stroke="#45c4cd" stroke-width="1.51"/><path d="M811,937L1008,1138L1027,896Z" fill="#47c9cb" stroke="#47c9cb" stroke-width="1.51"/><path d="M950,1212L886,1358L1080,1369Z" fill="#4acfc9" stroke="#4acfc9" stroke-width="1.51"/><path d="M-83,-280L92,-211L430,-201Z" fill="#28a5d7" stroke="#28a5d7" stroke-width="1.51"/><path d="M969,445L851,610L1008,647Z" fill="#42c0ce" stroke="#42c0ce" stroke-width="1.51"/><path d="M935,-168L967,-116L1032,-200Z" fill="#37b2d3" stroke="#37b2d3" stroke-width="1.51"/><path d="M931,-12L940,133L1031,67Z" fill="#3bb6d1" stroke="#3bb6d1" stroke-width="1.51"/><path d="M840,781L811,937L1027,896Z" fill="#45c5cd" stroke="#45c5cd" stroke-width="1.51"/><path d="M851,610L840,781L1008,647Z" fill="#43c1ce" stroke="#43c1ce" stroke-width="1.51"/><path d="M811,937L950,1212L1008,1138Z" fill="#47cacb" stroke="#47cacb" stroke-width="1.51"/><path d="M775,305L879,356L940,133Z" fill="#3db9d1" stroke="#3db9d1" stroke-width="1.51"/><path d="M931,-12L783,43L940,133Z" fill="#39b5d2" stroke="#39b5d2" stroke-width="1.51"/><path d="M811,937L735,1203L950,1212Z" fill="#47c9cb" stroke="#47c9cb" stroke-width="1.51"/><path d="M935,-168L931,-12L967,-116Z" fill="#38b3d2" stroke="#38b3d2" stroke-width="1.51"/><path d="M879,356L822,378L969,445Z" fill="#3fbcd0" stroke="#3fbcd0" stroke-width="1.51"/><path d="M822,378L851,610L969,445Z" fill="#40bdcf" stroke="#40bdcf" stroke-width="1.51"/><path d="M770,-6L931,-12L935,-168Z" fill="#38b3d3" stroke="#38b3d3" stroke-width="1.51"/><path d="M735,1203L886,1358L950,1212Z" fill="#49cdca" stroke="#49cdca" stroke-width="1.51"/><path d="M822,378L708,474L851,610Z" fill="#3fbcd0" stroke="#3fbcd0" stroke-width="1.51"/><path d="M735,1203L756,1337L886,1358Z" fill="#48ccca" stroke="#48ccca" stroke-width="1.51"/><path d="M783,43L775,305L940,133Z" fill="#3bb6d1" stroke="#3bb6d1" stroke-width="1.51"/><path d="M703,-231L770,-6L935,-168Z" fill="#36b1d4" stroke="#36b1d4" stroke-width="1.51"/><path d="M770,-6L783,43L931,-12Z" fill="#38b3d2" stroke="#38b3d2" stroke-width="1.51"/><path d="M622,1054L735,1203L811,937Z" fill="#46c7cc" stroke="#46c7cc" stroke-width="1.51"/><path d="M775,305L822,378L879,356Z" fill="#3ebad0" stroke="#3ebad0" stroke-width="1.51"/><path d="M637,722L840,781L851,610Z" fill="#42c0ce" stroke="#42c0ce" stroke-width="1.51"/><path d="M584,113L775,305L783,43Z" fill="#3ab5d2" stroke="#3ab5d2" stroke-width="1.51"/><path d="M583,842L811,937L840,781Z" fill="#43c3cd" stroke="#43c3cd" stroke-width="1.51"/><path d="M708,474L617,587L851,610Z" fill="#40bdcf" stroke="#40bdcf" stroke-width="1.51"/><path d="M617,587L637,722L851,610Z" fill="#40becf" stroke="#40becf" stroke-width="1.51"/><path d="M637,722L583,842L840,781Z" fill="#42c1ce" stroke="#42c1ce" stroke-width="1.51"/><path d="M775,305L708,474L822,378Z" fill="#3ebad0" stroke="#3ebad0" stroke-width="1.51"/><path d="M583,842L622,1054L811,937Z" fill="#44c4cd" stroke="#44c4cd" stroke-width="1.51"/><path d="M703,-231L517,-168L770,-6Z" fill="#34afd4" stroke="#34afd4" stroke-width="1.51"/><path d="M770,-6L584,113L783,43Z" fill="#38b3d3" stroke="#38b3d3" stroke-width="1.51"/><path d="M488,308L708,474L775,305Z" fill="#3cb8d1" stroke="#3cb8d1" stroke-width="1.51"/><path d="M584,113L488,308L775,305Z" fill="#3ab5d2" stroke="#3ab5d2" stroke-width="1.51"/><path d="M517,-168L584,113L770,-6Z" fill="#35b0d3" stroke="#35b0d3" stroke-width="1.51"/><path d="M430,-201L517,-168L703,-231Z" fill="#30abd5" stroke="#30abd5" stroke-width="1.51"/><path d="M488,308L544,482L708,474Z" fill="#3cb8d1" stroke="#3cb8d1" stroke-width="1.51"/><path d="M735,1203L446,1326L756,1337Z" fill="#47cacb" stroke="#47cacb" stroke-width="1.51"/><path d="M517,-168L445,-42L584,113Z" fill="#33aed4" stroke="#33aed4" stroke-width="1.51"/><path d="M622,1054L462,1175L735,1203Z" fill="#45c7cc" stroke="#45c7cc" stroke-width="1.51"/><path d="M462,1175L446,1326L735,1203Z" fill="#46c8cc" stroke="#46c8cc" stroke-width="1.51"/><path d="M583,842L513,962L622,1054Z" fill="#43c2ce" stroke="#43c2ce" stroke-width="1.51"/><path d="M617,587L583,654L637,722Z" fill="#3fbdcf" stroke="#3fbdcf" stroke-width="1.51"/><path d="M544,482L617,587L708,474Z" fill="#3ebad0" stroke="#3ebad0" stroke-width="1.51"/><path d="M445,-42L428,-3L584,113Z" fill="#34afd4" stroke="#34afd4" stroke-width="1.51"/><path d="M583,654L583,842L637,722Z" fill="#41bfcf" stroke="#41bfcf" stroke-width="1.51"/><path d="M513,962L462,1175L622,1054Z" fill="#44c4cd" stroke="#44c4cd" stroke-width="1.51"/><path d="M394,867L583,842L583,654Z" fill="#41bfcf" stroke="#41bfcf" stroke-width="1.51"/><path d="M398,170L488,308L584,113Z" fill="#37b2d3" stroke="#37b2d3" stroke-width="1.51"/><path d="M544,482L583,654L617,587Z" fill="#3ebbd0" stroke="#3ebbd0" stroke-width="1.51"/><path d="M488,308L433,351L544,482Z" fill="#3ab6d2" stroke="#3ab6d2" stroke-width="1.51"/><path d="M348,505L347,650L544,482Z" fill="#3cb8d1" stroke="#3cb8d1" stroke-width="1.51"/><path d="M394,867L513,962L583,842Z" fill="#42c0ce" stroke="#42c0ce" stroke-width="1.51"/><path d="M544,482L347,650L583,654Z" fill="#3ebad1" stroke="#3ebad1" stroke-width="1.51"/><path d="M347,650L394,867L583,654Z" fill="#3fbcd0" stroke="#3fbcd0" stroke-width="1.51"/><path d="M428,-3L398,170L584,113Z" fill="#35b0d4" stroke="#35b0d4" stroke-width="1.51"/><path d="M399,1257L446,1326L462,1175Z" fill="#45c6cc" stroke="#45c6cc" stroke-width="1.51"/><path d="M433,351L348,505L544,482Z" fill="#3bb6d1" stroke="#3bb6d1" stroke-width="1.51"/><path d="M264,1021L462,1175L513,962Z" fill="#43c2cd" stroke="#43c2cd" stroke-width="1.51"/><path d="M394,867L264,1021L513,962Z" fill="#42c0ce" stroke="#42c0ce" stroke-width="1.51"/><path d="M430,-201L445,-42L517,-168Z" fill="#30acd5" stroke="#30acd5" stroke-width="1.51"/><path d="M264,1021L308,1199L462,1175Z" fill="#43c3cd" stroke="#43c3cd" stroke-width="1.51"/><path d="M398,170L433,351L488,308Z" fill="#38b3d3" stroke="#38b3d3" stroke-width="1.51"/><path d="M398,170L239,286L433,351Z" fill="#37b2d3" stroke="#37b2d3" stroke-width="1.51"/><path d="M308,1199L399,1257L462,1175Z" fill="#45c5cc" stroke="#45c5cc" stroke-width="1.51"/><path d="M347,650L254,838L394,867Z" fill="#3fbcd0" stroke="#3fbcd0" stroke-width="1.51"/><path d="M233,102L398,170L428,-3Z" fill="#34aed4" stroke="#34aed4" stroke-width="1.51"/><path d="M430,-201L109,-140L445,-42Z" fill="#2eaad6" stroke="#2eaad6" stroke-width="1.51"/><path d="M109,-140L428,-3L445,-42Z" fill="#30abd5" stroke="#30abd5" stroke-width="1.51"/><path d="M399,1257L126,1398L446,1326Z" fill="#45c6cc" stroke="#45c6cc" stroke-width="1.51"/><path d="M109,-140L233,102L428,-3Z" fill="#30abd5" stroke="#30abd5" stroke-width="1.51"/><path d="M239,286L348,505L433,351Z" fill="#38b4d2" stroke="#38b4d2" stroke-width="1.51"/><path d="M308,1199L126,1398L399,1257Z" fill="#45c5cc" stroke="#45c5cc" stroke-width="1.51"/><path d="M92,-211L109,-140L430,-201Z" fill="#2aa7d6" stroke="#2aa7d6" stroke-width="1.51"/><path d="M229,1192L126,1398L308,1199Z" fill="#44c4cd" stroke="#44c4cd" stroke-width="1.51"/><path d="M254,838L264,1021L394,867Z" fill="#40becf" stroke="#40becf" stroke-width="1.51"/><path d="M233,102L239,286L398,170Z" fill="#35afd4" stroke="#35afd4" stroke-width="1.51"/><path d="M264,1021L229,1192L308,1199Z" fill="#43c2cd" stroke="#43c2cd" stroke-width="1.51"/><path d="M103,710L254,838L347,650Z" fill="#3dbad1" stroke="#3dbad1" stroke-width="1.51"/><path d="M109,505L103,710L347,650Z" fill="#3bb6d1" stroke="#3bb6d1" stroke-width="1.51"/><path d="M109,505L347,650L348,505Z" fill="#3bb6d1" stroke="#3bb6d1" stroke-width="1.51"/><path d="M239,286L109,505L348,505Z" fill="#38b4d3" stroke="#38b4d3" stroke-width="1.51"/><path d="M254,838L142,997L264,1021Z" fill="#40bdcf" stroke="#40bdcf" stroke-width="1.51"/><path d="M75,882L142,997L254,838Z" fill="#3ebccf" stroke="#3ebccf" stroke-width="1.51"/><path d="M142,997L229,1192L264,1021Z" fill="#41c0ce" stroke="#41c0ce" stroke-width="1.51"/><path d="M109,-140L-49,16L233,102Z" fill="#2da9d6" stroke="#2da9d6" stroke-width="1.51"/><path d="M233,102L-31,359L239,286Z" fill="#34afd4" stroke="#34afd4" stroke-width="1.51"/><path d="M-31,359L109,505L239,286Z" fill="#36b1d3" stroke="#36b1d3" stroke-width="1.51"/><path d="M103,710L75,882L254,838Z" fill="#3ebad1" stroke="#3ebad1" stroke-width="1.51"/><path d="M-31,359L-15,434L109,505Z" fill="#36b1d4" stroke="#36b1d4" stroke-width="1.51"/><path d="M142,997L-48,1075L229,1192Z" fill="#41bfcf" stroke="#41bfcf" stroke-width="1.51"/><path d="M-119,94L-31,359L233,102Z" fill="#30acd5" stroke="#30acd5" stroke-width="1.51"/><path d="M-49,16L-119,94L233,102Z" fill="#2daad6" stroke="#2daad6" stroke-width="1.51"/><path d="M-48,1075L126,1398L229,1192Z" fill="#42c1ce" stroke="#42c1ce" stroke-width="1.51"/><path d="M33,709L75,882L103,710Z" fill="#3cb8d1" stroke="#3cb8d1" stroke-width="1.51"/><path d="M33,709L103,710L109,505Z" fill="#3ab5d2" stroke="#3ab5d2" stroke-width="1.51"/><path d="M-48,1075L-59,1390L126,1398Z" fill="#43c1ce" stroke="#43c1ce" stroke-width="1.51"/><path d="M75,882L77,962L142,997Z" fill="#3fbcd0" stroke="#3fbcd0" stroke-width="1.51"/><path d="M77,962L-48,1075L142,997Z" fill="#3fbdcf" stroke="#3fbdcf" stroke-width="1.51"/><path d="M-119,649L33,709L109,505Z" fill="#39b4d2" stroke="#39b4d2" stroke-width="1.51"/><path d="M-76,-93L-49,16L109,-140Z" fill="#29a6d7" stroke="#29a6d7" stroke-width="1.51"/><path d="M-15,434L-119,649L109,505Z" fill="#37b2d3" stroke="#37b2d3" stroke-width="1.51"/><path d="M92,-211L-76,-93L109,-140Z" fill="#28a5d7" stroke="#28a5d7" stroke-width="1.51"/><path d="M-83,-280L-76,-93L92,-211Z" fill="#25a4d7" stroke="#25a4d7" stroke-width="1.51"/><path d="M-207,1311L-59,1390L-48,1075Z" fill="#41bfcf" stroke="#41bfcf" stroke-width="1.51"/><path d="M33,709L-225,750L75,882Z" fill="#3bb6d1" stroke="#3bb6d1" stroke-width="1.51"/><path d="M75,882L-130,1056L77,962Z" fill="#3ebbd0" stroke="#3ebbd0" stroke-width="1.51"/><path d="M-130,1056L-48,1075L77,962Z" fill="#3ebbd0" stroke="#3ebbd0" stroke-width="1.51"/><path d="M-225,750L-130,1056L75,882Z" fill="#3cb8d1" stroke="#3cb8d1" stroke-width="1.51"/><path d="M-143,444L-119,649L-15,434Z" fill="#35b1d4" stroke="#35b1d4" stroke-width="1.51"/><path d="M-119,649L-225,750L33,709Z" fill="#39b4d2" stroke="#39b4d2" stroke-width="1.51"/><path d="M-76,-93L-126,-25L-49,16Z" fill="#28a6d6" stroke="#28a6d6" stroke-width="1.51"/><path d="M-130,1056L-251,1144L-48,1075Z" fill="#3ebbd0" stroke="#3ebbd0" stroke-width="1.51"/><path d="M-251,1144L-207,1311L-48,1075Z" fill="#3fbdcf" stroke="#3fbdcf" stroke-width="1.51"/><path d="M-119,94L-262,230L-31,359Z" fill="#2faad5" stroke="#2faad5" stroke-width="1.51"/><path d="M-31,359L-143,444L-15,434Z" fill="#34afd4" stroke="#34afd4" stroke-width="1.51"/><path d="M-83,-280L-248,-226L-76,-93Z" fill="#23a2d8" stroke="#23a2d8" stroke-width="1.51"/><path d="M-262,230L-143,444L-31,359Z" fill="#31acd5" stroke="#31acd5" stroke-width="1.51"/><path d="M-126,-25L-119,94L-49,16Z" fill="#2aa7d7" stroke="#2aa7d7" stroke-width="1.51"/><path d="M-248,-226L-126,-25L-76,-93Z" fill="#25a3d7" stroke="#25a3d7" stroke-width="1.51"/><path d="M-225,750L-251,1144L-130,1056Z" fill="#3cb9d0" stroke="#3cb9d0" stroke-width="1.51"/><path d="M-143,444L-225,750L-119,649Z" fill="#36b2d3" stroke="#36b2d3" stroke-width="1.51"/><path d="M-126,-25L-262,230L-119,94Z" fill="#2ba8d6" stroke="#2ba8d6" stroke-width="1.51"/><path d="M-248,-226L-262,230L-126,-25Z" fill="#27a5d7" stroke="#27a5d7" stroke-width="1.51"/><path d="M-262,230L-225,750L-143,444Z" fill="#33aed4" stroke="#33aed4" stroke-width="1.51"/><path d="M-262,230L-251,1144L-225,750Z" fill="#37b3d3" stroke="#37b3d3" stroke-width="1.51"/></svg>