<?xml version="1.0" standalone="no"?>
<!DOCTYPE svg PUBLIC "-//W3C//DTD SVG 20010904//EN"
 "http://www.w3.org/TR/2001/REC-SVG-20010904/DTD/svg10.dtd">
<svg version="1.0" xmlns="http://www.w3.org/2000/svg"
 width="540.000000pt" height="540.000000pt" viewBox="0 0 540.000000 540.000000"
 preserveAspectRatio="xMidYMid meet">
<metadata>
Created by potrace 1.11, written by Peter Selinger 2001-2013
</metadata>
<g transform="translate(0.000000,540.000000) scale(0.100000,-0.100000)"
fill="#000000" stroke="none">
<path d="M0 2695 l0 -2625 2100 0 2099 0 0 675 0 675 -449 0 -450 0 0 -225 0
-225 -1200 0 -1200 0 0 1725 0 1725 1003 2 c551 2 1091 2 1200 0 l197 -2 0
-225 0 -225 450 0 450 0 -1 675 0 675 -2099 0 -2100 0 0 -2625z"/>
<path d="M4500 4195 l0 -1125 -150 0 -150 0 -1 98 c0 53 0 188 0 300 l1 202
-450 0 -450 0 0 -973 0 -973 48 -3 c26 -2 54 -3 62 -2 8 0 74 0 145 0 72 0
137 0 145 0 8 0 44 0 80 0 36 0 70 0 75 0 40 2 262 3 270 1 6 -1 24 -2 42 -1
l32 1 0 296 c0 163 1 298 3 299 4 4 135 7 231 6 l67 -1 0 -1125 0 -1125 450 0
450 0 0 2625 0 2625 -450 0 -450 0 0 -1125z"/>
<path d="M1258 4122 l-56 -3 1 -862 2 -862 560 0 560 0 1 -250 c0 -138 -2
-256 -4 -262 -5 -16 -441 -19 -443 -3 -1 6 -3 51 -4 100 -1 50 -3 96 -4 103
-1 9 -74 12 -333 12 l-333 0 -2 -413 -2 -412 900 0 900 0 -1 118 c0 64 0 153
0 197 0 61 1 409 1 480 0 12 -1 206 -1 345 -1 52 -1 122 0 155 0 133 -1 264
-3 345 l-2 85 -560 0 -560 0 0 260 0 260 119 5 c65 3 166 3 225 0 l106 -5 0
-107 c0 -67 3 -108 10 -109 44 -5 658 -3 661 3 2 3 4 40 4 80 0 145 0 219 0
281 0 34 -1 142 -2 240 -2 97 0 177 3 177 3 0 4 11 1 25 -2 14 -8 23 -12 20
-6 -4 -55 -5 -155 -4 -41 0 -151 0 -165 0 -143 -2 -262 -1 -270 4 -5 3 -11 2
-14 -3 -3 -4 -30 -5 -61 -2 -31 3 -58 3 -60 0 -2 -3 -29 -3 -60 0 -31 3 -58 3
-60 0 -2 -3 -29 -3 -60 0 -31 3 -58 3 -60 0 -2 -3 -29 -3 -60 0 -31 3 -58 3
-60 0 -2 -3 -29 -3 -60 0 -31 3 -58 3 -60 0 -2 -3 -29 -3 -60 0 -31 3 -58 3
-60 0 -2 -3 -29 -3 -60 0 -31 3 -58 3 -60 0 -2 -3 -28 -4 -57 -1 -29 3 -71 4
-93 1 -22 -3 -49 -3 -60 0 -11 3 -46 4 -77 2z"/>
</g>
</svg>
