<svg style="margin: 50px" xmlns="http://www.w3.org/2000/svg" xmlns:xlink="http://www.w3.org/1999/xlink" version="1.1" id="Layer_1" x="0px" y="0px" viewBox="0 0 2957.3 971.9" style="enable-background:new 0 0 2957.3 971.9;" xml:space="preserve">
<g>
	<path d="M627.5,0c0,35.3,0.1,70.6,0.1,105.9c0,277.4,0,554.7,0,832.1c0,4.3,0,8.5,0,13.6c-48.1,0-95.7,0-144.3,0   c0-16.4,0-33,0-51.7c-10.7,8.4-19.6,15.8-28.8,22.7c-33.6,24.8-71.2,39.2-112.7,43.8c-75.7,8.3-145.1-7.8-206.8-53.1   C85.4,876.8,52.1,828,29.7,771.4c-16.2-41-25.4-83.6-27.9-127.6c-0.1-2.2-1.2-4.3-1.8-6.4c0-21.1,0-42.2,0-63.3   c0.6-1.7,1.7-3.4,1.8-5.1c1.9-38.4,9.5-75.8,22.1-112c21.3-61.6,56-114,108.9-153c43.7-32.1,92.9-48.8,147.1-53   c65.9-5,125.9,9,179.2,48.7c7.4,5.5,14.9,11.1,23.8,17.8c0-107.2,0-212.3,0-317.4C531.2,0,579.3,0,627.5,0z M483.3,616.4   c-3-39.5-4.8-74.3-8.5-108.9c-2.4-23.1-10.8-44.6-26.6-62.2c-39.6-44.1-89.1-61.4-147.7-53.5c-52.7,7-90.4,35.7-116.1,80.9   c-20.3,35.9-28,75.4-30.8,116.2c-2.7,40,1.1,79.3,13.1,117.5c11.6,37.1,30.6,69.9,62.9,92.8c48.7,34.6,101.8,38.6,156.3,16.6   c46.1-18.7,78.4-51.6,87-102.1C478.5,680.2,480.2,646,483.3,616.4z"/>
	<path d="M2608.9,971.9c-8.9-1.3-17.9-2.8-26.8-3.9c-55.7-6.6-106.2-26.2-150.9-60.2c-67.5-51.3-105.7-120.7-123.2-202.6   c-9.8-46-12-92.5-7.7-139.1c6.7-72.8,27-141.3,71.4-200.6c45.8-61.1,106.9-98.4,182.1-112.3c68.3-12.6,135.2-7.1,199.6,19.1   c74.6,30.3,128.4,83.4,163.6,155.4c20.4,41.7,32.3,85.9,36.5,132.1c1,10.7,2.5,21.3,3.8,32c0,13.9,0,27.7,0,41.6   c-0.6,1.7-1.6,3.4-1.8,5.1c-2.1,19.5-2.6,39.3-6.5,58.5c-16.4,82.3-52.4,153.6-118.9,207.2c-40.7,32.8-87,53.1-138.4,61.8   c-13,2.2-26.2,4-39.2,5.9C2638,971.9,2623.4,971.9,2608.9,971.9z M2799.8,609.6c-0.9-13.4-1.6-26.9-2.9-40.3   c-3.3-36.2-13.2-70.5-31.8-101.8c-39.2-66.1-107.4-92.2-178.1-76c-50.7,11.6-86.3,42.8-110.1,87.6   c-25.6,48.1-32.8,100.1-28.8,154.2c2.7,36.9,10.8,72.1,28.2,105c36.5,68.8,103.1,99.1,174.2,88.8c47.6-6.9,84.5-32.4,110.5-72.7   C2789.4,710.4,2799.7,661.4,2799.8,609.6z"/>
	<path d="M1597.4,0c0,84.1,0.3,168.2-0.1,252.4c0,9.8,2.9,11.9,12.2,11.8c52.8-0.4,105.6,0,158.3-0.4c8.6-0.1,11.3,2.2,11.1,11   c-0.5,37.9-0.2,75.8-0.2,114.8c-60.5,0-120.3,0-181.3,0c0,4.7,0,8.2,0,11.7c0,107.5-0.3,215.1,0.3,322.6   c0.1,16.9,2.2,34.1,5.9,50.7c6.7,30.1,22.9,40.4,50.3,44.7c36.1,5.6,72,1.6,107.6-5.3c7-1.4,9,1.8,9.7,7.1   c3.5,24.3,6.8,48.6,10.2,72.9c2.2,15.5,4.5,31,7.1,48c-24.1,4.8-47.2,10.9-70.7,13.6c-29,3.3-58.3,5-87.5,5.3   c-30.9,0.3-61.5-3.9-90.4-15.7c-44-18-69.3-52.2-78.6-97.4c-5.4-26.1-8-53.3-8.2-80c-0.8-121.7-0.4-243.4-0.4-365.2   c0-3.9,0-7.8,0-12.4c-42.3,0-83.8,0-125.9,0c0-42.2,0-83.6,0-126.2c3.5,0,7,0,10.6,0c35,0,69.9-0.2,104.9,0.2   c8.2,0.1,10.6-2.1,10.6-10.4c-0.3-63.7,0.1-127.3-0.5-191c-0.1-9,3.1-12.3,10.9-15.1c43-15,85.9-30.4,128.8-45.8   c1.1-0.4,2.1-1.3,3.2-1.9C1596.1,0,1596.8,0,1597.4,0z"/>
	<path d="M2092.3,0c0,87.3,0,174.7,0,263.5c60.2,0,119.6,0,179.7,0c0,42.8,0,84.1,0,126.2c-59.6,0-118.9,0-178.9,0   c-0.2,3.5-0.6,6.4-0.6,9.2c0,109.5-0.3,219,0.2,328.5c0.1,15.6,2.6,31.3,5.7,46.7c6.2,30.4,24.5,41.4,51.8,45.3   c36.2,5.1,72,1.3,107.6-5.7c1.9-0.4,3.9,0,6.9,0c6.2,42.7,12.3,84.9,18.8,129.6c-31.7,5.1-62.1,11.5-92.8,14.3   c-29.4,2.7-59.2,3.6-88.6,2c-44.8-2.5-86.7-14.1-117.3-50.6c-17-20.3-26.7-44.3-30.8-70c-3.6-22.3-6-45-6.1-67.5   c-0.6-122.7-0.3-245.4-0.3-368.1c0-3.9,0-7.9,0-13c-42,0-83.7,0-125.9,0c0-42.5,0-83.9,0-126.4c4.4,0,8.6,0,12.8,0   c34.3,0,68.6-0.2,102.9,0.2c8.3,0.1,10.4-2.5,10.4-10.6c-0.3-64.3-0.1-128.6-0.3-192.9c0-6.6,1.7-9.4,8.3-11.7   c43.9-15.3,87.6-31.2,131.3-46.9c1.1-0.4,2.1-1.3,3.1-1.9C2091,0,2091.6,0,2092.3,0z"/>
	<path d="M786.7,435.5c-20.1-38.8-40.1-77.3-60.3-116.2c37.1-19.3,75.1-34.6,114.7-46c38.7-11.1,78-18.8,118.2-22.3   c37.5-3.3,75-3.8,112.3,0.6c46.7,5.6,91.9,16.9,131.1,44.9c38.7,27.7,63.3,64.1,66.2,112.8c1.6,26.6,3,53.2,3.1,79.9   c0.4,83.1-0.1,166.3,0.3,249.4c0.1,17.6,1.9,35.4,4.1,52.9c3.2,25.8,19.3,42.2,41.5,53.5c9,4.6,18.2,8.6,27.6,13   c-23.5,35.9-46.8,71.5-70.3,107c-1.5,2.3-5.1,5-7.3,4.6c-35.4-6.1-69.3-16.1-93-45.6c-8.7-10.8-14.9-23.6-22.8-36.4   c-7.6,7.8-15.7,16.7-24.4,24.8c-32,29.9-70.2,46.8-113.2,53.6c-61.2,9.7-120.4,2.6-176.3-24.2c-69.1-33.1-115.4-86.1-128.7-162.7   c-9.8-56.4-1.6-110.7,37.1-156.4c20.1-23.7,45.7-40.1,73.7-52.8c41-18.6,84.2-29.8,128.7-35.5c45.2-5.8,90.5-10.7,135.7-16   c12.7-1.5,25.4-3,39.3-4.6c1.2-37.7,2.1-75.4-28.9-104.6c-14.5-13.7-32.7-20.1-51.9-23.2c-66.8-10.7-131,0.9-193.5,24.5   C828.9,418.5,808.4,426.9,786.7,435.5z M1124.3,630.9c-50,7-98.7,12.9-147.1,20.9c-26.9,4.4-53.1,12.3-77.3,26.4   c-38.6,22.6-48.2,69-27.9,105.8c22.2,40.3,59.4,58.2,103,62.8c40.4,4.2,77.9-7,112-29.1c21.8-14.2,36.5-33.5,37.1-60.2   C1124.9,716.3,1124.3,675.1,1124.3,630.9z"/>
</g>
</svg>
