<?xml version="1.0" standalone="no"?>
<!DOCTYPE svg PUBLIC "-//W3C//DTD SVG 20010904//EN"
 "http://www.w3.org/TR/2001/REC-SVG-20010904/DTD/svg10.dtd">
<svg version="1.0" xmlns="http://www.w3.org/2000/svg"
 width="540.000000pt" height="540.000000pt" viewBox="0 0 540.000000 540.000000"
 preserveAspectRatio="xMidYMid meet">
<metadata>
Created by potrace 1.11, written by Peter Selinger 2001-2013
</metadata>
<g transform="translate(0.000000,540.000000) scale(0.100000,-0.100000)"
fill="#000000" stroke="none">
<path d="M194 5299 c-70 -27 -124 -76 -159 -145 l-30 -59 -2 -2392 -3 -2393
25 -57 c30 -66 89 -127 154 -157 l46 -21 1875 0 1875 0 47 22 c58 26 118 84
149 144 l24 44 3 567 2 568 -450 0 -450 0 0 -162 c0 -145 -2 -166 -21 -206
-16 -33 -32 -49 -63 -63 -39 -18 -89 -19 -1114 -19 -1149 0 -1117 -1 -1162 48
-41 45 -40 8 -40 1676 0 1747 -3 1647 56 1691 14 11 38 23 53 27 39 12 2164
10 2194 -1 32 -12 76 -56 88 -88 5 -13 9 -98 9 -189 l0 -164 450 0 451 0 -3
563 -3 562 -28 57 c-23 48 -59 88 -112 126 -53 38 12 37 -1940 39 -1834 2
-1871 2 -1921 -18z"/>
<path d="M4500 4195 l0 -1125 -150 0 -150 0 -1 98 c0 53 0 188 0 300 l1 202
-450 0 -450 0 0 -973 0 -973 48 -3 c26 -2 54 -3 62 -2 8 0 74 0 145 0 72 0
137 0 145 0 8 0 44 0 80 0 36 0 70 0 75 0 40 2 262 3 270 1 6 -1 24 -2 42 -1
l32 1 0 296 c0 163 1 298 3 299 4 4 135 7 231 6 l67 -1 0 -1125 0 -1125 450 0
450 0 0 2625 0 2625 -450 0 -450 0 0 -1125z"/>
<path d="M1305 4119 c-3 -3 -16 -4 -29 -2 -17 4 -32 -2 -50 -20 l-25 -25 0
-803 c0 -442 2 -813 5 -824 12 -49 14 -49 570 -50 385 0 525 -3 535 -12 12
-10 14 -56 14 -250 0 -131 -4 -244 -8 -250 -10 -16 -403 -18 -426 -4 -11 7
-15 34 -17 103 -1 51 -2 98 -3 103 -1 7 -118 10 -333 10 l-333 0 0 -393 0
-394 24 -19 c22 -18 51 -19 873 -19 l849 0 25 25 c23 23 25 32 24 117 0 51 0
129 0 173 0 60 1 381 1 480 0 12 -1 206 -1 345 -1 52 -1 120 -1 150 2 348 1
368 -9 394 -5 13 -19 28 -32 32 -13 4 -255 8 -539 9 -379 0 -520 3 -530 12
-12 9 -14 57 -14 252 0 132 4 244 9 248 22 23 420 19 435 -5 4 -7 7 -55 6
-107 -1 -60 3 -95 9 -96 45 -5 659 -3 662 3 2 3 4 42 4 85 0 43 0 121 1 173 0
52 0 102 0 110 0 8 0 102 0 208 -1 191 -1 193 -25 217 -21 20 -36 25 -83 26
-32 1 -62 0 -68 -1 -5 -1 -39 -1 -75 0 -36 1 -72 1 -80 1 -132 -3 -263 0 -270
4 -6 3 -10 2 -10 -2 0 -5 -27 -6 -60 -3 -33 3 -60 3 -60 0 0 -3 -27 -3 -60 0
-33 3 -60 3 -60 0 0 -3 -27 -3 -60 0 -33 3 -60 3 -60 0 0 -3 -27 -3 -60 0 -33
3 -60 3 -60 0 0 -3 -27 -3 -60 0 -33 3 -60 3 -60 0 0 -3 -27 -3 -60 0 -33 3
-60 3 -60 0 0 -3 -27 -3 -60 0 -33 3 -60 3 -60 0 0 -3 -27 -3 -60 0 -33 3 -60
3 -60 0 0 -3 -27 -3 -61 0 -33 3 -62 3 -64 -1z"/>
</g>
</svg>
